<svg width="482" height="233" viewBox="0 0 482 233" fill="none" xmlns="http://www.w3.org/2000/svg">
<path d="M7.856 75.472C6.40533 74.96 5.08267 74.064 3.888 72.784C2.77867 71.4187 2.224 70.0533 2.224 68.688C2.224 68.2613 2.30933 67.8773 2.48 67.536C2.65067 67.1093 3.46133 66.3413 4.912 65.232C6.10667 64.3787 6.74667 63.5253 6.832 62.672C7.088 52.8587 6.14933 37.968 4.016 18C4.016 17.4027 3.632 16.592 2.864 15.568C1.49867 13.9467 0.816 13.136 0.816 13.136C0.816 13.136 0.816 12.24 0.816 10.448C1.584 7.46133 3.84533 5.96799 7.6 5.96799C8.28267 5.96799 8.92267 6.01066 9.52 6.09599C15.664 6.09599 20.8693 7.54666 25.136 10.448C31.4507 14.6293 36.912 19.8773 41.52 26.192C44.9333 30.8853 46.64 36.0053 46.64 41.552C46.64 47.952 44.5067 54.1813 40.24 60.24C36.2293 65.9573 31.1947 70.3093 25.136 73.296C20.9547 75.4293 17.1147 76.496 13.616 76.496C11.568 76.496 9.648 76.1547 7.856 75.472ZM18.224 64.976C18.736 64.976 19.248 64.976 19.76 64.976C23.7707 64.976 27.2267 62.7147 30.128 58.192C34.3947 51.6213 36.528 46.3733 36.528 42.448C36.528 40.912 36.272 39.4613 35.76 38.096C34.1387 33.5733 31.664 29.648 28.336 26.32C24.5813 22.5653 20.4 20.432 15.792 19.92C15.792 23.8453 16.048 31.8667 16.56 43.984C17.1573 57.8933 17.712 64.8907 18.224 64.976ZM49.953 36.176C50.0383 33.9573 50.1663 31.6533 50.337 29.264C50.593 26.8747 51.5317 25.1253 53.153 24.016C54.433 23.504 55.8837 23.248 57.505 23.248C61.857 23.248 64.033 24.784 64.033 27.856C64.033 27.856 63.8623 32.0373 63.521 40.4C63.3503 45.4347 63.521 49.616 64.033 52.944C64.7157 55.9307 65.3983 58.9173 66.081 61.904C67.1903 65.6587 68.513 67.536 70.049 67.536C70.561 67.536 71.1157 67.3653 71.713 67.024C78.7957 62.16 82.337 54.8213 82.337 45.008C82.337 39.376 80.929 34.2987 78.113 29.776C76.577 27.3013 75.809 25.0827 75.809 23.12C75.809 20.6453 77.5157 19.408 80.929 19.408C84.257 19.408 87.201 21.2853 89.761 25.04C92.065 28.368 93.3023 31.8667 93.473 35.536C93.985 44.3253 92.961 52.2613 90.401 59.344C87.4143 67.6213 82.6783 73.168 76.193 75.984C73.5477 77.0933 71.073 77.648 68.769 77.648C62.2837 77.648 57.3343 73.4667 53.921 65.104C51.105 58.3627 49.697 50.3413 49.697 41.04C49.697 39.3333 49.7823 37.712 49.953 36.176ZM95.801 40.656C95.801 32.464 98.617 28.368 104.249 28.368C105.273 28.368 106.382 28.5387 107.577 28.88C109.966 29.5627 111.161 31.184 111.161 33.744C111.161 34.5973 110.99 35.9627 110.649 37.84C110.393 39.7173 110.265 41.0827 110.265 41.936C110.265 43.6427 110.606 45.008 111.289 46.032C112.996 44.496 114.83 41.8507 116.793 38.096C119.097 33.8293 120.804 31.056 121.913 29.776C123.961 27.216 126.35 25.936 129.081 25.936C130.446 25.936 131.94 26.2773 133.561 26.96L136.121 29.392C136.462 30.7573 136.804 33.2747 137.145 36.944C137.486 40.016 137.998 42.4053 138.681 44.112C141.582 40.8693 144.441 37.6267 147.257 34.384C151.012 30.8853 154.596 29.136 158.009 29.136C159.63 29.136 161.252 29.4347 162.873 30.032C164.153 30.8853 164.921 32.336 165.177 34.384C165.262 36.0907 165.348 37.84 165.433 39.632C166.372 46.544 166.841 52.7307 166.841 58.192C166.841 68.0053 165.305 76.88 162.233 84.816C161.465 87.4613 159.289 88.784 155.705 88.784C153.742 88.784 151.865 88.272 150.073 87.248C149.732 87.248 149.476 86.7787 149.305 85.84C149.134 84.7307 149.177 83.7493 149.433 82.896C151.993 75.984 153.273 68.304 153.273 59.856C153.273 55.0773 152.846 50.0427 151.993 44.752C151.993 44.1547 151.822 43.856 151.481 43.856C150.457 43.856 149.561 44.5813 148.793 46.032C144.441 53.1147 140.43 61.776 136.761 72.016C136.164 73.296 134.969 74.448 133.177 75.472C131.47 76.496 129.764 77.008 128.057 77.008C126.009 77.008 124.516 76.1973 123.577 74.576C122.638 72.8693 122.169 70.864 122.169 68.56C122.169 67.024 122.425 64.592 122.937 61.264C123.449 57.936 123.705 55.4187 123.705 53.712C123.705 51.5787 123.406 49.6587 122.809 47.952C121.444 50.3413 119.268 54.864 116.281 61.52C113.806 67.152 111.545 71.504 109.497 74.576C108.132 76.4533 106.084 77.392 103.353 77.392C100.537 77.392 98.7023 76.4107 97.849 74.448C97.081 72.4 96.569 69.9253 96.313 67.024C96.1423 64.8907 96.0997 62.16 96.185 58.832C96.3557 53.7973 96.441 50.9813 96.441 50.384C96.441 49.2747 96.313 47.6533 96.057 45.52C95.8863 43.3013 95.801 41.68 95.801 40.656ZM180.978 81.616C179.954 81.4453 178.845 80.08 177.65 77.52C177.309 74.8747 177.01 68.9867 176.754 59.856C176.583 52.6027 175.986 46.672 174.962 42.064C174.535 41.04 174.109 40.0587 173.682 39.12C173.085 37.84 172.786 36.7307 172.786 35.792C172.786 35.3653 172.871 34.9813 173.042 34.64C173.213 34.2133 173.597 33.6587 174.194 32.976C174.877 32.2933 175.346 31.7387 175.602 31.312C175.687 30.032 175.73 28.624 175.73 27.088C175.73 25.8933 175.687 24.0587 175.602 21.584C175.517 19.024 175.474 17.104 175.474 15.824C175.474 12.496 175.73 9.59466 176.242 7.12C176.583 5.58399 177.479 4.04799 178.93 2.51199C180.466 0.890661 181.959 0.0799942 183.41 0.0799942C184.519 0.0799942 185.501 0.634661 186.354 1.744C188.146 3.536 189.042 5.79733 189.042 8.528C189.042 9.97866 188.658 12.368 187.89 15.696C187.122 18.9387 186.738 21.3707 186.738 22.992C186.738 25.3813 187.25 27.472 188.274 29.264C196.21 29.6907 202.994 31.3547 208.626 34.256C215.282 37.6693 219.677 42.4907 221.81 48.72C222.322 50.1707 222.578 51.664 222.578 53.2C222.578 56.4427 221.597 59.7707 219.634 63.184C217.757 66.256 215.367 68.816 212.466 70.864C201.97 78.288 192.967 82 185.458 82C183.922 82 182.429 81.872 180.978 81.616ZM190.322 68.816C195.357 68.4747 199.837 67.024 203.762 64.464C208.37 61.392 210.589 57.7227 210.418 53.456C210.333 49.7013 207.986 46.4587 203.378 43.728C199.111 41.168 194.546 39.888 189.682 39.888C188.743 39.888 187.847 39.9307 186.994 40.016C186.994 52.9867 188.103 62.5867 190.322 68.816ZM225.441 45.904C225.356 40.1013 227.062 35.28 230.561 31.44C234.06 27.5147 238.54 25.552 244.001 25.552C249.804 25.552 254.924 27.7707 259.361 32.208C263.884 36.56 266.102 41.68 266.017 47.568C265.249 49.9573 262.049 52.816 256.417 56.144C249.42 60.3253 245.537 62.8 244.769 63.568C243.318 64.2507 242.593 64.976 242.593 65.744C242.593 67.1093 243.532 68.3467 245.409 69.456C247.286 70.48 248.95 70.992 250.401 70.992C253.217 70.992 257.27 69.6267 262.561 66.896C264.182 68.0907 264.993 69.712 264.993 71.76C264.993 73.3813 264.481 74.8747 263.457 76.24C262.433 77.6053 261.11 78.416 259.489 78.672C254.028 79.5253 250.572 79.952 249.121 79.952C246.22 79.952 243.617 79.44 241.313 78.416C231.158 73.8933 225.868 63.056 225.441 45.904ZM239.393 52.432C246.988 52.0907 251.596 49.4027 253.217 44.368C253.558 43.6853 253.729 43.0027 253.729 42.32C253.729 40.528 252.79 39.0773 250.913 37.968C249.036 36.8587 246.945 36.304 244.641 36.304C242.934 36.304 241.484 36.6453 240.289 37.328C237.814 38.608 236.577 41.296 236.577 45.392C236.577 49.9147 237.516 52.2613 239.393 52.432ZM273.296 34.896C273.381 32.336 272.997 28.5387 272.144 23.504C271.291 18.384 270.864 14.7147 270.864 12.496C270.864 9.33866 271.461 6.56533 272.656 4.17599C274.021 1.44533 276.368 0.0799942 279.696 0.0799942C283.109 0.0799942 284.944 1.87199 285.2 5.45599C285.285 5.968 285.2 6.864 284.944 8.144C284.688 9.424 284.56 10.2347 284.56 10.576C284.56 28.8373 284.56 37.968 284.56 37.968C284.389 40.9547 284.432 44.9227 284.688 49.872C285.029 55.76 285.2 59.6427 285.2 61.52C285.2 68.432 284.133 74.192 282 78.8C281.061 80.9333 279.355 82 276.88 82C275.259 82 273.637 81.5733 272.016 80.72C270.48 79.7813 269.712 78.1173 269.712 75.728C269.712 75.0453 269.84 74.3627 270.096 73.68C271.632 68.3893 272.528 61.9893 272.784 54.48C272.955 47.9093 273.125 41.3813 273.296 34.896ZM298.671 34.896C298.756 32.336 298.372 28.5387 297.519 23.504C296.666 18.384 296.239 14.7147 296.239 12.496C296.239 9.33866 296.836 6.56533 298.031 4.17599C299.396 1.44533 301.743 0.0799942 305.071 0.0799942C308.484 0.0799942 310.319 1.87199 310.575 5.45599C310.66 5.968 310.575 6.864 310.319 8.144C310.063 9.424 309.935 10.2347 309.935 10.576C309.935 28.8373 309.935 37.968 309.935 37.968C309.764 40.9547 309.807 44.9227 310.063 49.872C310.404 55.76 310.575 59.6427 310.575 61.52C310.575 68.432 309.508 74.192 307.375 78.8C306.436 80.9333 304.73 82 302.255 82C300.634 82 299.012 81.5733 297.391 80.72C295.855 79.7813 295.087 78.1173 295.087 75.728C295.087 75.0453 295.215 74.3627 295.471 73.68C297.007 68.3893 297.903 61.9893 298.159 54.48C298.33 47.9093 298.5 41.3813 298.671 34.896ZM149.606 203.472C148.155 202.96 146.833 202.064 145.638 200.784C144.529 199.419 143.974 198.053 143.974 196.688C143.974 196.261 144.059 195.877 144.23 195.536C144.401 195.109 145.211 194.341 146.662 193.232C147.857 192.379 148.497 191.525 148.582 190.672C148.838 180.859 147.899 165.968 145.766 146C145.766 145.403 145.382 144.592 144.614 143.568C143.249 141.947 142.566 141.136 142.566 141.136C142.566 141.136 142.566 140.24 142.566 138.448C143.334 135.461 145.595 133.968 149.35 133.968C150.033 133.968 150.673 134.011 151.27 134.096C157.414 134.096 162.619 135.547 166.886 138.448C173.201 142.629 178.662 147.877 183.27 154.192C186.683 158.885 188.39 164.005 188.39 169.552C188.39 175.952 186.257 182.181 181.99 188.24C177.979 193.957 172.945 198.309 166.886 201.296C162.705 203.429 158.865 204.496 155.366 204.496C153.318 204.496 151.398 204.155 149.606 203.472ZM159.974 192.976C160.486 192.976 160.998 192.976 161.51 192.976C165.521 192.976 168.977 190.715 171.878 186.192C176.145 179.621 178.278 174.373 178.278 170.448C178.278 168.912 178.022 167.461 177.51 166.096C175.889 161.573 173.414 157.648 170.086 154.32C166.331 150.565 162.15 148.432 157.542 147.92C157.542 151.845 157.798 159.867 158.31 171.984C158.907 185.893 159.462 192.891 159.974 192.976ZM193.751 177.616C193.751 170.875 194.519 166.011 196.055 163.024C197.25 160.635 199.34 159.44 202.327 159.44C203.607 159.44 204.844 159.696 206.039 160.208C208.428 161.317 209.623 162.768 209.623 164.56C209.623 165.243 209.367 165.84 208.855 166.352C207.319 168.485 206.508 171.259 206.423 174.672C206.167 178.853 205.826 181.541 205.399 182.736C204.972 183.931 204.759 185.296 204.759 186.832C204.759 187.941 204.93 189.648 205.271 191.952C205.698 194.171 205.911 195.877 205.911 197.072C205.911 198.267 205.826 199.419 205.655 200.528C205.57 201.637 205.143 202.192 204.375 202.192C202.498 202.704 200.834 202.96 199.383 202.96C196.652 202.96 194.946 201.936 194.263 199.888C193.58 197.413 193.239 194.427 193.239 190.928C193.239 189.477 193.324 187.259 193.495 184.272C193.666 181.285 193.751 179.067 193.751 177.616ZM196.951 148.688C196.354 148.005 196.055 147.024 196.055 145.744C196.055 142.501 196.951 140.368 198.743 139.344C200.535 138.32 202.455 137.808 204.503 137.808C206.21 137.808 207.703 138.277 208.983 139.216C210.348 140.155 211.031 141.477 211.031 143.184C211.031 144.635 210.562 146.171 209.623 147.792C208.684 149.328 207.703 150.395 206.679 150.992C205.655 151.589 204.546 151.888 203.351 151.888C200.876 151.888 198.743 150.821 196.951 148.688ZM238.88 152.784C242.123 154.064 245.365 155.387 248.608 156.752C252.107 158.459 254.496 160.592 255.776 163.152C256.032 163.493 256.16 163.963 256.16 164.56C256.16 166.949 255.349 168.656 253.728 169.68C252.96 170.107 252.107 170.32 251.168 170.32C249.717 170.32 246.987 169.125 242.976 166.736C238.965 164.347 235.808 163.152 233.504 163.152C231.797 163.152 230.133 163.621 228.512 164.56C227.744 165.072 227.36 165.797 227.36 166.736C227.36 167.931 228.043 169.296 229.408 170.832C230.859 172.368 232.139 173.349 233.248 173.776C242.123 176.933 248.864 180.645 253.472 184.912C255.008 186.363 255.776 188.368 255.776 190.928C255.776 193.915 254.837 196.944 252.96 200.016C251.168 203.088 248.181 205.691 244 207.824C239.904 209.872 235.68 210.896 231.328 210.896C223.648 210.896 218.272 207.696 215.2 201.296C214.944 200.784 214.816 200.187 214.816 199.504C214.816 198.053 215.499 196.731 216.864 195.536C218.229 194.256 219.68 193.573 221.216 193.488C222.411 193.317 223.477 194.085 224.416 195.792C225.525 197.755 226.421 198.907 227.104 199.248C228.64 200.016 230.389 200.4 232.352 200.4C235.339 200.4 237.941 199.632 240.16 198.096C242.464 196.475 243.616 194.384 243.616 191.824C243.616 189.861 241.653 187.984 237.728 186.192C233.376 184.315 229.067 182.48 224.8 180.688C220.192 178.299 216.992 175.269 215.2 171.6C214.688 170.491 214.432 169.381 214.432 168.272C214.432 164.432 216.864 160.72 221.728 157.136C226.336 153.723 230.859 152.016 235.296 152.016C236.661 152.016 237.856 152.272 238.88 152.784ZM289.149 212.688C288.466 212.261 287.741 211.323 286.973 209.872C286.29 208.677 285.65 208.08 285.053 208.08C280.53 207.312 275.965 206.544 271.357 205.776C266.322 204.496 262.738 202.021 260.605 198.352C259.24 196.56 258.557 194.171 258.557 191.184C258.557 186.832 259.624 183.248 261.757 180.432C266.877 173.52 274.386 170.064 284.285 170.064C288.552 170.064 290.6 170.192 290.429 170.448C291.112 169.424 291.453 167.973 291.453 166.096C291.453 163.877 290.813 162.64 289.533 162.384C288.253 162.043 286.973 161.872 285.693 161.872C283.474 161.872 281 162.427 278.269 163.536C275.624 164.56 273.021 165.541 270.461 166.48C270.034 166.651 269.65 166.736 269.309 166.736C267.944 166.736 266.834 165.755 265.981 163.792C265.298 162.256 264.957 160.592 264.957 158.8C264.957 157.691 265.085 157.008 265.341 156.752C270.973 152.912 277.33 150.992 284.413 150.992C291.837 150.992 296.829 153.637 299.389 158.928C300.754 161.829 301.437 164.987 301.437 168.4C301.437 171.216 300.882 175.184 299.773 180.304C298.493 185.936 297.725 190.032 297.469 192.592C297.042 198.992 296.616 203.344 296.189 205.648C295.165 210.853 293.544 213.456 291.325 213.456C290.642 213.456 289.917 213.2 289.149 212.688ZM286.845 197.2C287.101 196.005 287.656 193.872 288.509 190.8C289.277 188.411 289.661 186.448 289.661 184.912C289.661 183.12 289.277 181.328 288.509 179.536C284.157 180.475 279.848 181.371 275.581 182.224C270.546 183.675 267.986 186.661 267.901 191.184C267.816 193.147 269.693 194.811 273.533 196.176C276.861 197.456 280.189 198.096 283.517 198.096C285.48 198.096 286.589 197.797 286.845 197.2ZM328.255 152.784C331.498 154.064 334.74 155.387 337.983 156.752C341.482 158.459 343.871 160.592 345.151 163.152C345.407 163.493 345.535 163.963 345.535 164.56C345.535 166.949 344.724 168.656 343.103 169.68C342.335 170.107 341.482 170.32 340.543 170.32C339.092 170.32 336.362 169.125 332.351 166.736C328.34 164.347 325.183 163.152 322.879 163.152C321.172 163.152 319.508 163.621 317.887 164.56C317.119 165.072 316.735 165.797 316.735 166.736C316.735 167.931 317.418 169.296 318.783 170.832C320.234 172.368 321.514 173.349 322.623 173.776C331.498 176.933 338.239 180.645 342.847 184.912C344.383 186.363 345.151 188.368 345.151 190.928C345.151 193.915 344.212 196.944 342.335 200.016C340.543 203.088 337.556 205.691 333.375 207.824C329.279 209.872 325.055 210.896 320.703 210.896C313.023 210.896 307.647 207.696 304.575 201.296C304.319 200.784 304.191 200.187 304.191 199.504C304.191 198.053 304.874 196.731 306.239 195.536C307.604 194.256 309.055 193.573 310.591 193.488C311.786 193.317 312.852 194.085 313.791 195.792C314.9 197.755 315.796 198.907 316.479 199.248C318.015 200.016 319.764 200.4 321.727 200.4C324.714 200.4 327.316 199.632 329.535 198.096C331.839 196.475 332.991 194.384 332.991 191.824C332.991 189.861 331.028 187.984 327.103 186.192C322.751 184.315 318.442 182.48 314.175 180.688C309.567 178.299 306.367 175.269 304.575 171.6C304.063 170.491 303.807 169.381 303.807 168.272C303.807 164.432 306.239 160.72 311.103 157.136C315.711 153.723 320.234 152.016 324.671 152.016C326.036 152.016 327.231 152.272 328.255 152.784ZM366.876 152.784C367.303 149.883 367.943 145.531 368.796 139.728C369.137 136.315 371.356 134.608 375.452 134.608C377.927 134.608 380.231 135.291 382.364 136.656C383.388 137.68 383.601 139.131 383.004 141.008C379.676 148.176 378.012 156.88 378.012 167.12C386.119 166.352 390.001 165.968 389.66 165.968C394.097 165.968 396.316 167.205 396.316 169.68C396.316 170.192 396.231 170.747 396.06 171.344C395.207 174.075 392.476 175.739 387.868 176.336C386.247 176.592 382.236 176.72 375.836 176.72C375.665 177.659 375.58 179.067 375.58 180.944C375.58 185.04 376.135 193.531 377.244 206.416C378.183 218.448 378.567 225.659 378.396 228.048C378.225 230.949 376.732 232.4 373.916 232.4C371.271 232.4 369.479 231.035 368.54 228.304C367.772 226.171 366.961 217.552 366.108 202.448C365.34 188.027 364.273 179.579 362.908 177.104C359.409 179.749 355.953 181.072 352.54 181.072C351.004 181.072 349.639 180.645 348.444 179.792C346.993 178.853 346.268 177.659 346.268 176.208C346.268 174.416 347.377 172.795 349.596 171.344C350.705 170.832 353.393 170.064 357.66 169.04C360.988 168.357 363.207 167.333 364.316 165.968C365.425 164.603 366.108 162.555 366.364 159.824C366.535 157.435 366.705 155.088 366.876 152.784ZM399.191 173.904C399.106 168.101 400.812 163.28 404.311 159.44C407.81 155.515 412.29 153.552 417.751 153.552C423.554 153.552 428.674 155.771 433.111 160.208C437.634 164.56 439.852 169.68 439.767 175.568C438.999 177.957 435.799 180.816 430.167 184.144C423.17 188.325 419.287 190.8 418.519 191.568C417.068 192.251 416.343 192.976 416.343 193.744C416.343 195.109 417.282 196.347 419.159 197.456C421.036 198.48 422.7 198.992 424.151 198.992C426.967 198.992 431.02 197.627 436.311 194.896C437.932 196.091 438.743 197.712 438.743 199.76C438.743 201.381 438.231 202.875 437.207 204.24C436.183 205.605 434.86 206.416 433.239 206.672C427.778 207.525 424.322 207.952 422.871 207.952C419.97 207.952 417.367 207.44 415.063 206.416C404.908 201.893 399.618 191.056 399.191 173.904ZM413.143 180.432C420.738 180.091 425.346 177.403 426.967 172.368C427.308 171.685 427.479 171.003 427.479 170.32C427.479 168.528 426.54 167.077 424.663 165.968C422.786 164.859 420.695 164.304 418.391 164.304C416.684 164.304 415.234 164.645 414.039 165.328C411.564 166.608 410.327 169.296 410.327 173.392C410.327 177.915 411.266 180.261 413.143 180.432ZM445.51 170.32C445.339 168.955 444.657 166.693 443.462 163.536C442.353 160.635 441.798 158.416 441.798 156.88C441.798 154.832 442.566 153.125 444.102 151.76C445.638 150.309 447.259 149.584 448.966 149.584C451.185 149.584 453.105 150.651 454.726 152.784C456.347 154.832 457.158 157.264 457.158 160.08C457.158 160.677 457.115 161.275 457.03 161.872C459.249 161.531 461.937 159.739 465.094 156.496C467.995 153.424 470.641 151.888 473.03 151.888C473.883 151.888 474.779 152.016 475.718 152.272C479.302 153.723 481.094 155.131 481.094 156.496C481.094 157.179 480.795 157.904 480.198 158.672C478.577 160.976 475.59 163.92 471.238 167.504C466.971 171.003 463.942 174.075 462.15 176.72C461.553 177.659 461.169 179.195 460.998 181.328C460.913 183.461 460.614 184.955 460.102 185.808C459.675 186.576 459.462 187.515 459.462 188.624C459.462 190.416 460.145 192.208 461.51 194C462.619 195.365 463.174 197.115 463.174 199.248C463.174 202.405 462.193 204.923 460.23 206.8C458.95 208.848 457.03 209.872 454.47 209.872C452.337 209.872 450.63 209.061 449.35 207.44C447.899 206.501 447.259 204.581 447.43 201.68C447.771 194.085 447.131 183.632 445.51 170.32Z" fill="black"/>
</svg>
